<svg xmlns="http://www.w3.org/2000/svg" width="24" height="24" viewBox="0 0 24 24">
  <path d="M19 8h-9c-.553 0-1-.448-1-1s.447-1 1-1h9c.553 0 1 .448 1 1s-.447 1-1 1m0 5h-9c-.553 0-1-.448-1-1s.447-1 1-1h9c.553 0 1 .448 1 1s-.447 1-1 1m0 5h-9c-.553 0-1-.448-1-1s.447-1 1-1h9c.553 0 1 .448 1 1s-.447 1-1 1M7 17c0 .829-.671 1.5-1.5 1.5S4 17.829 4 17s.671-1.5 1.5-1.5S7 16.171 7 17m0-5c0 .829-.671 1.5-1.5 1.5S4 12.829 4 12s.671-1.5 1.5-1.5S7 11.171 7 12m0-5c0 .829-.671 1.5-1.5 1.5S4 7.829 4 7s.671-1.5 1.5-1.5S7 6.171 7 7">
  </path> 
</svg>